<svg width="68" height="68" viewBox="0 0 68 68" fill="none" xmlns="http://www.w3.org/2000/svg">
<path d="M1.07374 47.8295L1.07375 47.8295L1.07806 47.8248L1.07815 47.8247L1.07832 47.8245L1.07933 47.8234L1.08569 47.8165L1.11437 47.7857C1.14054 47.7576 1.18074 47.7149 1.23466 47.6584C1.34248 47.5453 1.50512 47.3773 1.71995 47.1621C2.14967 46.7317 2.78785 46.1131 3.61366 45.369C5.26619 43.88 7.665 41.893 10.6436 39.9067C16.6162 35.9238 24.8356 32 34 32C43.1644 32 51.3838 35.9238 57.3564 39.9067C60.335 41.893 62.7338 43.88 64.3863 45.369C65.2122 46.1131 65.8503 46.7317 66.2801 47.1621C66.4949 47.3773 66.6575 47.5453 66.7653 47.6584C66.8193 47.7149 66.8595 47.7576 66.8856 47.7857L66.9143 47.8165L66.9207 47.8234L66.9217 47.8245L66.9219 47.8247L66.9219 47.8248L66.9263 47.8295C66.9813 47.8889 67 47.9501 67 48C67 48.0499 66.9813 48.1111 66.9262 48.1705L66.9219 48.1752L66.9219 48.1753L66.9217 48.1755L66.9207 48.1766L66.9143 48.1835L66.8856 48.2143C66.8595 48.2424 66.8193 48.2851 66.7653 48.3416C66.6575 48.4547 66.4949 48.6227 66.2801 48.8379C65.8503 49.2683 65.2122 49.8869 64.3863 50.631C62.7338 52.12 60.335 54.107 57.3564 56.0933C51.3838 60.0762 43.1644 64 34 64C24.8356 64 16.6162 60.0762 10.6436 56.0933C7.665 54.107 5.26619 52.12 3.61366 50.631C2.78785 49.8869 2.14967 49.2683 1.71995 48.8379C1.50512 48.6227 1.34248 48.4547 1.23466 48.3416C1.18074 48.2851 1.14054 48.2424 1.11437 48.2143L1.08569 48.1835L1.07933 48.1766L1.07833 48.1755L1.07815 48.1753L1.07806 48.1752L1.07374 48.1705C1.01865 48.1111 1 48.0499 1 48C1 47.9501 1.01865 47.8889 1.07374 47.8295Z" stroke="#60B56E" stroke-width="2"/>
<path d="M45.4893 3.0001C45.4175 3.00184 45.347 3.01964 45.2825 3.05229C45.2179 3.08494 45.1609 3.13167 45.1152 3.18931C45.1152 3.18931 43.098 5.7258 41.0801 8.96626C39.0622 12.2067 37 16.1068 37 19.1449C37 24.0293 40.8108 28 45.5 28C50.1892 28 54 24.0299 54 19.1459C54 16.1076 51.9378 12.2068 49.9199 8.96626C47.902 5.72574 45.8848 3.18931 45.8848 3.18931C45.8368 3.12876 45.7763 3.0803 45.7078 3.04753C45.6393 3.01477 45.5646 2.99855 45.4893 3.0001Z" fill="url(#paint0_linear_2003_536)"/>
<path d="M40 18C40.0013 22.6667 43.2784 25 46 25" stroke="#0C1226"/>
<path d="M50 43.5C50 46.5578 48.3165 49.4096 45.4284 51.5332C42.5408 53.6564 38.5035 55 34 55C29.4965 55 25.4592 53.6564 22.5716 51.5332C19.6835 49.4096 18 46.5578 18 43.5C18 40.4422 19.6835 37.5904 22.5716 35.4668C25.4592 33.3436 29.4965 32 34 32C38.5035 32 42.5408 33.3436 45.4284 35.4668C48.3165 37.5904 50 40.4422 50 43.5Z" stroke="#60B56E" stroke-width="2"/>
<ellipse cx="34" cy="42.5" rx="7" ry="5.5" fill="#60B56E"/>
<defs>
<linearGradient id="paint0_linear_2003_536" x1="45.5" y1="24.875" x2="43.8554" y2="11.4548" gradientUnits="userSpaceOnUse">
<stop stop-color="#5FB56D"/>
<stop offset="1" stop-color="#FB8C3F"/>
</linearGradient>
</defs>
</svg>
