<svg width="68" height="68" viewBox="0 0 68 68" fill="none" xmlns="http://www.w3.org/2000/svg">
<path fill-rule="evenodd" clip-rule="evenodd" d="M21.7274 15.7664C20.8756 14.4887 18.9612 14.6079 18.2745 15.9814L8.95136 34.6276L8.57812 35.3741L9.24579 35.8748C9.58177 36.1268 10.0837 36.5289 10.4929 36.9095C10.6999 37.102 10.8603 37.2679 10.9613 37.3926L10.9675 37.4003L10.9675 37.4006C10.9661 37.5153 10.9655 37.6671 10.9689 37.85C10.9755 38.2154 10.9977 38.7045 11.0596 39.275C11.1829 40.4105 11.4663 41.8957 12.1176 43.3792C12.7711 44.8676 13.8049 46.3757 15.434 47.5086C17.069 48.6456 19.2341 49.3561 22.0645 49.3561C24.8517 49.3561 27.0019 48.7984 28.6408 47.8094C30.2888 46.815 31.3445 45.4296 32.0114 43.9104C33.1924 41.2204 33.174 38.0235 33.1609 35.7348V35.7348L33.1597 35.5306C33.7244 35.1173 34.5067 34.8795 35.3458 34.8795C36.1869 34.8795 36.971 35.1184 37.536 35.5336C37.5356 35.5999 37.5352 35.6669 37.5348 35.7348C37.5217 38.0235 37.5033 41.2203 38.6843 43.9104C39.3513 45.4296 40.407 46.815 42.055 47.8094C43.6938 48.7984 45.844 49.3561 48.6312 49.3561C51.4616 49.3561 53.6268 48.6456 55.2617 47.5086C56.8908 46.3757 57.9246 44.8676 58.5781 43.3792C59.2294 41.8957 59.5129 40.4105 59.6361 39.275C59.698 38.7045 59.7202 38.2154 59.7268 37.85C59.7302 37.6671 59.7296 37.5153 59.7282 37.4006L59.7282 37.4003L59.7344 37.3926C59.8355 37.2679 59.9958 37.102 60.2028 36.9095C60.612 36.5289 61.114 36.1268 61.4499 35.8748L62.1176 35.3741L61.7444 34.6276L52.4212 15.9814C51.7345 14.6079 49.8201 14.4887 48.9683 15.7664L46.7366 19.1139L48.4007 20.2233L50.6324 16.8758L59.0185 33.6481C53.2272 32.4402 49.4081 32.2358 46.4231 32.4845C44.7616 32.623 43.3807 32.9001 42.0921 33.2053C41.646 33.3109 41.2209 33.4173 40.8026 33.5219L40.8022 33.522C40.1422 33.6871 39.4991 33.8479 38.8177 33.9951C37.831 33.2286 36.5581 32.8795 35.3458 32.8795C34.1339 32.8795 32.8613 33.2283 31.8748 33.9944C31.1946 33.8474 30.5525 33.6868 29.8935 33.522L29.8935 33.522L29.8931 33.5219C29.4748 33.4173 29.0497 33.3109 28.6036 33.2053C27.315 32.9001 25.9341 32.623 24.2726 32.4845C21.2876 32.2358 17.4685 32.4402 11.6772 33.6481L20.0633 16.8758L22.295 20.2233L23.9591 19.1139L21.7274 15.7664ZM29.3465 35.4471C29.9361 35.5944 30.5394 35.7452 31.1605 35.8847C31.1687 38.2 31.1552 40.8855 30.1801 43.1064C29.6518 44.3099 28.8481 45.3484 27.6074 46.0971C26.3577 46.8512 24.5898 47.3561 22.0645 47.3561C19.5825 47.3561 17.8296 46.7385 16.5759 45.8666C15.3163 44.9907 14.4908 43.8094 13.9489 42.5752C12.919 40.2292 12.9605 37.8143 12.9697 37.2807C12.9703 37.2453 12.9708 37.2181 12.9708 37.1998C12.9708 36.8979 12.8555 36.6562 12.7867 36.53C12.7068 36.3832 12.6082 36.2483 12.5154 36.1338C12.3764 35.9622 12.209 35.7858 12.0353 35.6165C17.7291 34.4255 21.3598 34.2487 24.1065 34.4776C25.6325 34.6048 26.9078 34.859 28.1427 35.1514C28.5382 35.2451 28.9388 35.3452 29.346 35.447L29.3463 35.447L29.3465 35.4471ZM58.1803 36.1338C58.3193 35.9622 58.4867 35.7858 58.6605 35.6165C52.9667 34.4255 49.336 34.2487 46.5892 34.4776C45.0632 34.6048 43.7879 34.859 42.5531 35.1514C42.1575 35.2451 41.7568 35.3453 41.3495 35.447L41.3494 35.447L41.3494 35.4471C40.7597 35.5944 40.1564 35.7452 39.5352 35.8847C39.527 38.2 39.5405 40.8855 40.5156 43.1064C41.0439 44.3099 41.8476 45.3484 43.0883 46.0971C44.3381 46.8512 46.1059 47.3561 48.6312 47.3561C51.1133 47.3561 52.8661 46.7385 54.1198 45.8666C55.3794 44.9907 56.2049 43.8094 56.7468 42.5752C57.7767 40.2292 57.7352 37.8143 57.726 37.2807C57.7254 37.2453 57.7249 37.2181 57.7249 37.1998C57.7249 36.8979 57.8403 36.6562 57.909 36.53C57.9889 36.3832 58.0875 36.2483 58.1803 36.1338Z" fill="url(#paint0_linear_2003_548)"/>
<circle cx="34" cy="34" r="33" stroke="#60B56E" stroke-width="2"/>
<path d="M58 12L12 58" stroke="#60B56E" stroke-width="2"/>
<defs>
<linearGradient id="paint0_linear_2003_548" x1="35.3479" y1="45.046" x2="34.3425" y2="26.3126" gradientUnits="userSpaceOnUse">
<stop stop-color="#5FB56D"/>
<stop offset="1" stop-color="#FB8C3F"/>
</linearGradient>
</defs>
</svg>
